<svg xmlns="http://www.w3.org/2000/svg" xmlns:svg="http://www.w3.org/2000/svg" id="svg831" width="20" height="19" version="1.1" viewBox="0 0 20 19" style="fill:none"><metadata id="metadata837"/><path id="path825" d="M 10.000002,8.1671631e-6 V 15.270008 l -6.1799999,3.73 1.64,-7.03 L 2.0565151e-6,7.2400082 7.1900021,6.6300082 Z" style="fill:#f5c543"/><path id="path827" d="m 10.258402,14.841908 -0.2584,-0.1559 -0.2583999,0.1559 -5.16547,3.1177 1.3708,-5.876 0.06856,-0.2939 -0.2281,-0.1976 -4.56431,-3.9540698 6.00919,-0.50982 0.30043,-0.02549 0.11766,-0.27761 2.3496399,-5.54381 2.3496,5.54381 0.1177,0.27761 0.3004,0.02549 6.0092,0.50982 -4.5643,3.9540698 -0.2281,0.1976 0.0686,0.2939 1.3708,5.876 z" style="stroke:#b7b7b7"/><path id="path829" d="m 5.3322621,16.919208 3.66774,-2.2137 0.9999999,-0.6055 v 1.17 l -6.1799999,3.73 1.64,-7.03 L 2.0565151e-6,7.2400082 7.1900021,6.6300082 10.000002,8.1671631e-6 V 2.6000082 l -0.9999999,2.32203 -1.1246,2.65341 -5.42923,0.46066 4.12481,3.5732998 z" style="fill:#f0a43b"/></svg>